# xmcd CD database file
#
# Track frame offsets:
#	150
#	19165
#	33762
#	51995
#	60395
#
# Disc length: 1543 seconds
#
# Revision: 2
# Processed by: cddbd v1.5.1PL2 Copyright (c) Steve Scherf et al.
# Submitted via: CDex 1.51
#
DISCID=36060505
DTITLE=The Primrose - Infection
DYEAR=1996
DGENRE=Rock
TTITLE0=Infection
TTITLE1=A Cap Of Tea
TTITLE2=Kiss Your Breast And Eyes
TTITLE3=A Dog On A Rollercoaster
TTITLE4=Einstein
EXTD=YEAR: 1996
EXTT0=
EXTT1=
EXTT2=
EXTT3=
EXTT4=
PLAYORDER=
